<svg width="120" height="120" viewBox="0 0 120 120" fill="none" xmlns="http://www.w3.org/2000/svg">
  <!-- Sun -->
  <g>
    <circle cx="25" cy="25" r="12" fill="#FFD600" stroke="#FFC107" stroke-width="3"/>
    <g stroke="#FFC107" stroke-width="2">
      <line x1="25" y1="7" x2="25" y2="0"/>
      <line x1="25" y1="43" x2="25" y2="50"/>
      <line x1="7" y1="25" x2="0" y2="25"/>
      <line x1="43" y1="25" x2="50" y2="25"/>
      <line x1="14" y1="14" x2="7" y2="7"/>
      <line x1="36" y1="14" x2="43" y2="7"/>
      <line x1="14" y1="36" x2="7" y2="43"/>
      <line x1="36" y1="36" x2="43" y2="43"/>
    </g>
  </g>
  <!-- House -->
  <g>
    <rect x="75" y="60" width="32" height="28" rx="4" fill="#F5F5F5" stroke="#757575" stroke-width="2"/>
    <polygon points="91,50 73,60 107,60" fill="#BDBDBD" stroke="#757575" stroke-width="2"/>
    <rect x="92" y="75" width="8" height="13" rx="2" fill="#BCAAA4"/>
  </g>
  <!-- Solar Panel (tilted, yellow, in front of house) -->
  <g>
    <polygon points="30,90 65,75 80,105 45,120" fill="#FFFDE7" stroke="#FFD600" stroke-width="2"/>
    <!-- Panel grid -->
    <g stroke="#FFD600" stroke-width="1.2">
      <line x1="37" y1="94" x2="72" y2="80"/>
      <line x1="42" y1="104" x2="77" y2="90"/>
      <line x1="47" y1="114" x2="82" y2="100"/>
      <line x1="52" y1="92" x2="62" y2="112"/>
      <line x1="62" y1="87" x2="72" y2="107"/>
    </g>
  </g>
  <!-- Battery (separate, left) -->
  <g>
    <rect x="10" y="95" width="18" height="20" rx="4" fill="#FFF" stroke="#388E3C" stroke-width="2"/>
    <rect x="15" y="90" width="8" height="7" rx="2" fill="#A5D6A7" stroke="#388E3C" stroke-width="1"/>
    <!-- Lightning bolt -->
    <polygon points="19,105 17,112 22,112 18,118" fill="#FFD600" stroke="#FFC107" stroke-width="1"/>
  </g>
  <!-- Flow arrows -->
  <g>
    <!-- Sun to panel -->
    <polyline points="30,37 45,80" fill="none" stroke="#FFD600" stroke-width="2" marker-end="url(#arrow)"/>
    <!-- Panel to battery -->
    <polyline points="50,110 28,105" fill="none" stroke="#388E3C" stroke-width="2" marker-end="url(#arrow)"/>
    <!-- Panel to house -->
    <polyline points="75,95 90,70" fill="none" stroke="#1976D2" stroke-width="2" marker-end="url(#arrow)"/>
  </g>
  <defs>
    <marker id="arrow" markerWidth="6" markerHeight="6" refX="5" refY="3" orient="auto" markerUnits="strokeWidth">
      <path d="M0,0 L6,3 L0,6 L2,3 Z" fill="#FFC107" />
    </marker>
  </defs>
</svg>
